<svg width="17" height="17" viewBox="0 0 17 17" fill="none" xmlns="http://www.w3.org/2000/svg">
<path d="M1 8.47321C1 9.45461 1.19399 10.4264 1.5709 11.3331C1.94781 12.2398 2.50026 13.0636 3.1967 13.7576C3.89314 14.4515 4.71993 15.002 5.62987 15.3776C6.53982 15.7531 7.51509 15.9464 8.5 15.9464C9.48491 15.9464 10.4602 15.7531 11.3701 15.3776C12.2801 15.002 13.1069 14.4515 13.8033 13.7576C14.4997 13.0636 15.0522 12.2398 15.4291 11.3331C15.806 10.4264 16 9.45461 16 8.47321C16 7.49182 15.806 6.52003 15.4291 5.61334C15.0522 4.70665 14.4997 3.88281 13.8033 3.18885C13.1069 2.4949 12.2801 1.94443 11.3701 1.56886C10.4602 1.1933 9.48491 1 8.5 1C7.51509 1 6.53982 1.1933 5.62987 1.56886C4.71993 1.94443 3.89314 2.4949 3.1967 3.18885C2.50026 3.88281 1.94781 4.70665 1.5709 5.61334C1.19399 6.52003 1 7.49182 1 8.47321Z" stroke="white" stroke-width="2" stroke-linecap="round" stroke-linejoin="round"/>
<path d="M10.1666 6.60563C9.68081 6.18026 9.04921 5.95783 8.40309 5.98458C7.75697 6.01134 7.14606 6.28522 6.6974 6.74928C6.2494 7.21245 5.99908 7.83066 5.99908 8.47393C5.99908 9.1172 6.2494 9.73541 6.6974 10.1986C7.14606 10.6626 7.75697 10.9365 8.40309 10.9633C9.04921 10.99 9.68081 10.7676 10.1666 10.3422" stroke="white" stroke-width="2" stroke-linecap="round" stroke-linejoin="round"/>
</svg>
